<svg viewBox="0 0 74.74 90.71" xmlns="http://www.w3.org/2000/svg"><rect width="74.74" height="90.71" fill="#1B2951"/><path fill="#F7F3EB" d="M.24,58.8c-.53-10.58-.81-21.26,6.37-28.75,7.07-7.37,17.91-6.8,28.09-6.54.76.02,2.64,1.2,2.63,1.97l-.03,10.36c0,1.55-2.67,2.4-3.82,2.01-3.7,0-6.6-.13-10.47.67l21.69,19.4.12-40.91c0-.92-1.14-1.98-2.02-1.98H3.53c-1.86-.01-3.51-1.17-3.5-3.08L.08,3.02C.08,1.65,1.6,0,3.07,0h68.51c1.21,0,3.07,1.48,3.08,2.5l.09,9.48c0,.91-1.11,2.92-2.04,2.93l-8.49.18c-.64.01-1.8.52-2.45,1.08l-.02,71.34c0,2.02-1.88,3.19-3.4,3.19l-10.52-.02c-2-.12-2.97-1.56-2.99-3.46l-.12-12.87c-6.64,7.49-14.97,5.86-24.02,5.72C9.11,78.97.82,70.61.24,58.8ZM21.89,65.51c5.83,1.32,11.67,1.19,17.08-.44l-22.43-19.95c-1.08,7.78-1.44,18.85,5.36,20.39Z"/></svg>
